<svg width="23" height="24" viewBox="0 0 23 24" fill="none" xmlns="http://www.w3.org/2000/svg">
<path d="M1.24857 6.612C2.22491 4.62389 3.72268 2.95261 5.57449 1.78496C7.42629 0.617312 9.55916 -0.000700282 11.7347 5.95478e-07C14.8972 5.95478e-07 17.5539 1.1892 19.5852 3.126L16.2209 6.5676C15.004 5.3784 13.4573 4.7724 11.7347 4.7724C8.67781 4.7724 6.09031 6.8844 5.16913 9.72C4.93444 10.44 4.80066 11.208 4.80066 12C4.80066 12.792 4.93444 13.56 5.16913 14.28C6.09148 17.1168 8.67781 19.2276 11.7347 19.2276C13.313 19.2276 14.6566 18.8016 15.7081 18.0816C16.3176 17.6712 16.8394 17.1387 17.242 16.5162C17.6446 15.8937 17.9196 15.1942 18.0503 14.46H11.7347V9.8184H22.7864C22.9249 10.6032 23 11.4216 23 12.2724C23 15.9276 21.7209 19.0044 19.5007 21.0924C17.5598 22.926 14.9031 24 11.7347 24C10.1935 24.0006 8.66729 23.6907 7.24329 23.0878C5.81929 22.485 4.52543 21.6011 3.43564 20.4867C2.34585 19.3723 1.4815 18.0491 0.891995 16.5929C0.30249 15.1368 -0.000615909 13.576 9.39614e-07 12C9.39614e-07 10.0632 0.45296 8.232 1.24857 6.612Z" fill="#001640"/>
</svg>
